# AST/ASF file generated using VICON BodyLanguage
# -----------------------------------------------
:version 1.10
:name VICON
:units
  mass 1.0
  length 0.45
  angle deg
:documentation
   .ast/.asf automatically generated from VICON data using
   VICON BodyBuilder and BodyLanguage model FoxedUp or BRILLIANT.MOD
:root
   order TX TY TZ RX RY RZ
   axis XYZ
   position 0 0 0  
   orientation 0 0 0 
:bonedata
  begin
     id 1 
     name lhipjoint
     direction 0.521689 -0.742065 0.420928 
     length 2.47002 
     axis 0 0 0  XYZ
  end
  begin
     id 2 
     name lfemur
     direction 0.34202 -0.939693 0  
     length 7.24654  
     axis 0 0 20  XYZ
    dof rx ry rz
    limits (-160.0 20.0)
           (-70.0 70.0)
           (-60.0 70.0)
  end
  begin
     id 3 
     name ltibia
     direction 0.34202 -0.939693 0   
     length 8.04849   
     axis 0 0 20   XYZ
    dof rx
    limits (-10.0 170.0)
  end
  begin
     id 4 
     name lfoot
     direction 0.0745411 -0.2048 0.975961   
     length 1.72367   
     axis -90 7.62852e-016 20   XYZ
    dof rx rz
    limits (-45.0 90.0)
           (-70.0 20.0)
  end
  begin
     id 5 
     name ltoes
     direction 1.53556e-011 -4.21901e-011 1   
     length 0.87311   
     axis -90 7.62852e-016 20   XYZ
    dof rx
    limits (-90.0 20.0)
  end
  begin
     id 6 
     name rhipjoint
     direction -0.52849 -0.738415 0.418857   
     length 2.48223  
     axis 0 0 0  XYZ 
  end
  begin
     id 7 
     name rfemur
     direction -0.34202 -0.939693 0   
     length 7.15571   
     axis 0 0 -20   XYZ
    dof rx ry rz
    limits (-160.0 20.0)
           (-70.0 70.0)
           (-70.0 60.0)
  end
  begin
     id 8 
     name rtibia
     direction -0.34202 -0.939693 0   
     length 7.81659   
     axis 0 0 -20   XYZ
    dof rx
    limits (-10.0 170.0)
 end
 begin
     id 9 
     name rfoot
     direction -0.0917348 -0.252039 0.963359   
     length 1.84382  
     axis -90 -7.62852e-016 -20   XYZ
    dof rx rz
    limits (-45.0 90.0)
           (-20.0 70.0)
  end
  begin
     id 10 
     name rtoes
     direction -1.53551e-011 -4.21879e-011 1   
     length 0.927771   
     axis -90 -7.62852e-016 -20   XYZ
    dof rx
    limits (-90.0 20.0)
  end
  begin
     id 11 
     name lowerback
     direction 0.00583058 0.999822 0.0179296   
     length 2.1429   
     axis 0 0 0   XYZ
    dof rx ry rz
    limits (-20.0 45.0)
           (-30.0 30.0)
           (-30.0 30.0)
  end
  begin
     id 12 
     name upperback
     direction -0.0137999 0.999752 -0.0175071   
     length 2.14252   
     axis 0 0 0   XYZ
    dof rx ry rz
    limits (-20.0 45.0)
           (-30.0 30.0)
           (-30.0 30.0)
  end
  begin
     id 13 
     name thorax
     direction -0.0158036 0.99955 -0.0254909   
     length 2.1383   
     axis 0 0 0   XYZ
    dof rx ry rz
    limits (-20.0 45.0)
           (-30.0 30.0)
           (-30.0 30.0)
  end
  begin
     id 14 
     name lowerneck
     direction -0.0101179 0.999403 -0.0330262   
     length 1.65808   
     axis 0 0 0   XYZ
    dof rx ry rz
    limits (-20.0 45.0)
           (-30.0 30.0)
           (-30.0 30.0)
  end
  begin
     id 15 
     name upperneck
     direction 0.0497734 0.995978 -0.074501   
     length 1.5897   
     axis 0 0 0   XYZ
    dof rx ry rz
    limits (-20.0 45.0)
           (-30.0 30.0)
           (-30.0 30.0)
  end
  begin
     id 16
     name head
     direction 0.0189524 0.999519 -0.0245438  
     length 1.74024  
     axis 0 0 0   XYZ
    dof rx ry rz
    limits (-20.0 45.0)
           (-30.0 30.0)
           (-30.0 30.0)
  end
  begin
     id 17 
     name lclavicle
     direction 0.945604 0.324422 0.0241537  
     length 3.59089  
     axis 0 0 0   XYZ
    dof ry rz
    limits (-20.0 10.0)
           (0.0 20.0)
  end
  begin
     id 18 
     name lhumerus
     direction 1 -4.48964e-011 -2.63524e-027   
     length 5.2391   
     axis 180 -30 -90   XYZ
    dof rx ry rz
    limits (-60.0 90.0)
           (-90.0 90.0)
           (-90.0 90.0)
  end
  begin
     id 19
     name lradius
     direction 1 -4.48969e-011 3.86978e-028   
     length 3.31467   
     axis 180 -30 -90   XYZ
    dof rx
    limits (-10.0 170.0)
  end
  begin
     id 20
     name lwrist
     direction 1 -4.48963e-011 7.20928e-028   
     length 1.65734   
     axis -5.52449e-016 90 90   XYZ
    dof ry
    limits (-180.0 0.0)
 end
  begin
     id 21 
     name lhand
     direction 1 -4.48964e-011 1.44186e-027   
     length 0.9659   
     axis -9.20027e-016 90 90   XYZ
    dof rx rz
    limits (-90.0 90.0)
           (-45.0 45.0)
  end
  begin
     id 22 
     name lfingers
     direction 1 -4.48965e-011 2.88371e-027   
     length 0.778733   
     axis -1.84005e-015 90 90   XYZ
    dof rx
    limits (0.0 90.0)
  end
  begin
     id 23
     name lthumb
     direction 0.707107 -6.34931e-011 0.707107   
     length 1.11811   
     axis -90 45 2.85299e-015   XYZ
    dof rx rz
    limits (-45.0 45.0)
           (-45.0 45.0)
  end
  begin
     id 24 
     name rclavicle
     direction -0.923762 0.370785 0.0958234   
     length 3.54196  
     axis 0 0 0   XYZ 
    dof ry rz
    limits (-10.0 20.0)
           (-20.0 0.0)
  end
  begin
     id 25 
     name rhumerus
     direction -1 -4.48966e-011 1.18702e-017  
     length 5.30252   
     axis 180 30 90   XYZ
    dof rx ry rz
    limits (-90.0 60.0)
           (-90.0 90.0)
           (-90.0 90.0)
  end
  begin
     id 26 
     name rradius
     direction -1 -4.48966e-011 4.46736e-027   
     length 3.67875   
     axis 180 30 90   XYZ
    dof rx
    limits (-10.0 170.0)
  end
  begin
     id 27 
     name rwrist
     direction -1 -4.48966e-011 7.20928e-028   
     length 1.83937   
     axis -5.52449e-016 -90 -90   XYZ
    dof ry
    limits (-180.0 0.0)
  end
  begin
     id 28
     name rhand
     direction -1 -4.48973e-011 1.44186e-027   
     length 0.594811   
     axis -9.20027e-016 -90 -90   XYZ
    dof rx rz
    limits (-90.0 90.0)
           (-45.0 45.0)
  end
  begin
     id 29
     name rfingers
     direction -1 -4.48963e-011 2.88371e-027   
     length 0.479552   
     axis -1.84005e-015 -90 -90   XYZ
    dof rx
    limits (0.0 90.0)
  end
  begin
     id 30
     name rthumb
     direction -0.707107 -6.34932e-011 0.707107   
     length 0.688544   
     axis -90 -45 -2.85299e-015   XYZ
    dof rx rz
    limits (-45.0 45.0)
           (-45.0 45.0)
  end
:hierarchy
  begin
    root lhipjoint rhipjoint lowerback
    lhipjoint lfemur
    lfemur ltibia
    ltibia lfoot
    lfoot ltoes
    rhipjoint rfemur
    rfemur rtibia
    rtibia rfoot
    rfoot rtoes
    lowerback upperback
    upperback thorax
    thorax lowerneck lclavicle rclavicle
    lowerneck upperneck
    upperneck head
    lclavicle lhumerus
    lhumerus lradius
    lradius lwrist
    lwrist lhand lthumb
    lhand lfingers
    rclavicle rhumerus
    rhumerus rradius
    rradius rwrist
    rwrist rhand rthumb
    rhand rfingers
  end

#!OML:ASF E:\acrobat2\Project_11_07_03\Capture day 1\Session 1\Acrobat.ASF
:FULLY-SPECIFIED
:DEGREES
639
root 5.44629 28.033 0.553744 5.86119 0.300485 -0.478912
lowerback -2.91424 0.458318 2.94438
upperback -0.518989 0.525379 -0.444774
thorax 1.13182 0.273796 -2.08731
lowerneck 2.79669 -1.18015 -1.56681
upperneck 1.49169 -1.61846 0.517984
head 0.0132932 -0.8174 0.423228
rclavicle 9.57767e-016 -5.3206e-015
rhumerus -40.8204 -4.49272 -83.0541
rradius 29.3331
rwrist 2.47742
rhand -0.0558775 -21.1232
rfingers 7.12502
rthumb 25.5369 -49.4316
lclavicle 9.57767e-016 -5.3206e-015
lhumerus -27.9975 -8.0191 84.4509
lradius 18.8851
lwrist 5.18613
lhand -9.26869 -11.0817
lfingers 7.12502
lthumb 16.6878 18.221
rfemur -4.30976 1.09792 22.6445
rtibia 13.1168
rfoot -19.1144 -13.0962
rtoes -18.6698
lfemur -5.34321 1.49031 -14.6635
ltibia 20.8423
lfoot 348.095 -14.4937
ltoes 21.5561
640
root 5.44007 28.0461 0.533691 5.86351 0.509592 -0.373788
lowerback -2.76501 0.440763 2.89514
upperback -0.456498 0.507935 -0.490823
thorax 1.11133 0.265417 -2.10839
lowerneck 2.78412 -1.20248 -1.63637
upperneck 1.45638 -1.65022 0.592193
head 0.00605919 -0.833609 0.457647
rclavicle 1.85948e-015 3.37002e-015
rhumerus -40.7586 -4.37606 -83.1893
rradius 29.0205
rwrist 2.71387
rhand 0.133865 -21.2402
rfingers 7.12502
rthumb 25.7186 -49.5225
lclavicle 1.85948e-015 3.37002e-015
lhumerus -27.819 -7.90398 84.3721
lradius 19.0845
lwrist 5.11637
lhand -9.30759 -10.9561
lfingers 7.12502
lthumb 16.6503 18.3497
rfemur -4.22651 1.14093 22.8128
rtibia 12.8285
rfoot -19.1504 -13.3686
rtoes -17.8896
lfemur -6.10064 1.72427 -14.4533
ltibia 21.9408
lfoot 348.826 -14.3722
ltoes 20.7587
641
root 5.43494 28.0581 0.514358 5.84985 0.73341 -0.283094
lowerback -2.62898 0.419449 2.86452
upperback -0.380079 0.48408 -0.525283
thorax 1.1122 0.254365 -2.12807
lowerneck 2.77522 -1.26689 -1.7076
upperneck 1.40663 -1.7382 0.683993
head -0.00527502 -0.877918 0.4983
rclavicle 2.11356e-015 -4.31813e-015
rhumerus -40.6541 -4.21696 -83.3057
rradius 28.6449
rwrist 2.9496
rhand 0.393505 -21.3529
rfingers 7.12502
rthumb 25.9672 -49.599
lclavicle 2.11356e-015 -4.31813e-015
lhumerus -27.6509 -7.86315 84.3411
lradius 19.3456
lwrist 5.19515
lhand -9.32809 -10.8324
lfingers 7.12502
lthumb 16.6306 18.4751
rfemur -4.11626 1.17692 22.9638
rtibia 12.5408
rfoot -19.212 -13.5854
rtoes -16.9445
lfemur -6.84945 1.88989 -14.2635
ltibia 23.0376
lfoot 349.478 -14.2479
ltoes 20.0898
642
root 5.43122 28.0683 0.495597 5.82454 0.962751 -0.210503
lowerback -2.50925 0.396192 2.85718
upperback -0.291403 0.456135 -0.547733
thorax 1.1346 0.24181 -2.14842
lowerneck 2.76331 -1.34721 -1.77659
upperneck 1.37632 -1.84723 0.778372
head -0.00981194 -0.93281 0.53947
rclavicle 2.43822e-016 4.4944e-015
rhumerus -40.5203 -4.01201 -83.4085
rradius 28.2336
rwrist 3.1653
rhand 0.690746 -21.448
rfingers 7.12502
rthumb 26.2518 -49.652
lclavicle 2.43822e-016 4.4944e-015
lhumerus -27.4768 -7.91418 84.3614
lradius 19.6464
lwrist 5.41118
lhand -9.34267 -10.7051
lfingers 7.12502
lthumb 16.6166 18.6035
rfemur -3.98556 1.21416 23.102
rtibia 12.264
rfoot -19.3148 -13.7458
rtoes -15.7809
lfemur -7.5878 1.9856 -14.0905
ltibia 24.1192
lfoot 350.051 -14.1513
ltoes 19.6885
643
root 5.42918 28.0763 0.477341 5.7861 1.19301 -0.161178
lowerback -2.39203 0.374437 2.88182
upperback -0.200984 0.429134 -0.562401
thorax 1.16041 0.229943 -2.17863
lowerneck 2.75566 -1.41258 -1.84829
upperneck 1.38726 -1.93655 0.880926
head -0.00252505 -0.978025 0.583314
rclavicle -6.29666e-015 2.59041e-015
rhumerus -40.4005 -3.77208 -83.5043
rradius 27.8311
rwrist 3.35897
rhand 0.97703 -21.5101
rfingers 7.12502
rthumb 26.5259 -49.673
lclavicle -6.29666e-015 2.59041e-015
lhumerus -27.3087 -8.05746 84.4252
lradius 19.9729
lwrist 5.73538
lhand -9.36741 -10.5783
lfingers 7.12502
lthumb 16.5927 18.7323
rfemur -3.83366 1.25127 23.2371
rtibia 11.9869
rfoot -19.4283 -13.8806
rtoes -14.5639
lfemur -8.3045 2.02212 -13.9288
ltibia 25.1671
lfoot 350.554 -14.1066
ltoes 19.7016
644
root 5.42886 28.0819 0.459613 5.73156 1.42318 -0.141862
lowerback -2.26051 0.356775 2.9463
upperback -0.120434 0.407101 -0.571979
thorax 1.16857 0.220396 -2.22588
lowerneck 2.7634 -1.43528 -1.9405
upperneck 1.45524 -1.97013 1.0102
head 0.0193358 -0.995751 0.638276
rclavicle 6.6158e-016 1.18525e-014
rhumerus -40.3416 -3.51496 -83.5945
rradius 27.488
rwrist 3.55171
rhand 1.26699 -21.5693
rfingers 7.12502
rthumb 26.8034 -49.69
lclavicle 6.6158e-016 1.18525e-014
lhumerus -27.1713 -8.24343 84.5121
lradius 20.3262
lwrist 6.09305
lhand -9.40445 -10.4585
lfingers 7.12502
lthumb 16.5571 18.8552
rfemur -3.66013 1.28057 23.3811
rtibia 11.6951
rfoot -19.5058 -14.0347
rtoes -13.5878
lfemur -8.98973 2.01642 -13.7698
ltibia 26.1667
lfoot 350.961 -14.1107
ltoes 19.9757
645
root 5.42987 28.0853 0.442455 5.65974 1.65064 -0.152736
lowerback -2.10358 0.339784 3.04302
upperback -0.0549128 0.386205 -0.573071
thorax 1.14723 0.210958 -2.28261
lowerneck 2.78028 -1.45156 -2.02226
upperneck 1.5326 -1.99524 1.141
head 0.0424493 -1.00923 0.692082
rclavicle 1.95213e-015 5.60324e-015
rhumerus -40.3422 -3.25038 -83.6752
rradius 27.2103
rwrist 3.77946
rhand 1.60698 -21.6691
rfingers 7.12502
rthumb 27.1287 -49.7395
lclavicle 1.95213e-015 5.60324e-015
lhumerus -27.0819 -8.42191 84.6117
lradius 20.7025
lwrist 6.43258
lhand -9.46686 -10.3891
lfingers 7.12502
lthumb 16.497 18.9295
rfemur -3.46576 1.30576 23.5373
rtibia 11.3803
rfoot -19.5288 -14.2293
rtoes -12.9417
lfemur -9.63485 1.98884 -13.6103
ltibia 27.1045
lfoot 351.225 -14.1488
ltoes 20.2943
646
root 5.43203 28.0869 0.426365 5.5732 1.8571 -0.180195
lowerback -1.92502 0.327428 3.15359
upperback -0.00428441 0.372309 -0.568654
thorax 1.09891 0.204465 -2.34131
lowerneck 2.80471 -1.49199 -2.05992
upperneck 1.59551 -2.05133 1.23567
head 0.059793 -1.03786 0.727831
rclavicle -5.04882e-015 1.25731e-014
rhumerus -40.3802 -2.99432 -83.7428
rradius 26.9708
rwrist 4.06091
rhand 1.98657 -21.8101
rfingers 7.12502
rthumb 27.4917 -49.8233
lclavicle -5.04882e-015 1.25731e-014
lhumerus -27.0448 -8.56936 84.7198
lradius 21.0969
lwrist 6.72796
lhand -9.54719 -10.4102
lfingers 7.12502
lthumb 16.4197 18.9148
rfemur -3.2555 1.33717 23.6893
rtibia 11.0494
rfoot -19.4986 -14.4613
rtoes -12.6243
lfemur -10.2222 1.96133 -13.465
ltibia 27.9449
lfoot 351.303 -14.198
ltoes 20.5118
647
root 5.43497 28.0871 0.411853 5.47717 2.02378 -0.214855
lowerback -1.73941 0.324747 3.25834
upperback 0.0358187 0.372158 -0.558137
thorax 1.0366 0.204401 -2.39011
lowerneck 2.83303 -1.58245 -2.03308
upperneck 1.63026 -2.17198 1.26955
head 0.0678734 -1.09824 0.734643
rclavicle -4.01607e-015 1.18525e-014
rhumerus -40.4331 -2.74077 -83.7966
rradius 26.7416
rwrist 4.39345
rhand 2.37044 -21.9506
rfingers 7.12502
rthumb 27.8588 -49.9049
lclavicle -4.01607e-015 1.18525e-014
lhumerus -27.0475 -8.67562 84.8376
lradius 21.5071
lwrist 6.96949
lhand -9.62706 -10.5097
lfingers 7.12502
lthumb 16.3428 18.8217
rfemur -3.03632 1.38925 23.8269
rtibia 10.7224
rfoot -19.4336 -14.7154
rtoes -12.5598
lfemur -10.7369 1.94989 -13.339
ltibia 28.6493
lfoot 351.185 -14.2381
ltoes 20.5289
648
root 5.43842 28.0867 0.399253 5.38345 2.14287 -0.250661
lowerback -1.5707 0.335435 3.34276
upperback 0.0677429 0.390075 -0.540637
thorax 0.976406 0.213141 -2.41982
lowerneck 2.86456 -1.74096 -1.94072
upperneck 1.64172 -2.38108 1.2511
head 0.0685309 -1.20233 0.715085
rclavicle -1.3977e-015 1.18774e-014
rhumerus -40.4908 -2.47868 -83.8363
rradius 26.5103
rwrist 4.75958
rhand 2.70226 -22.0352
rfingers 7.12502
rthumb 28.176 -49.9377
lclavicle -1.3977e-015 1.18774e-014
lhumerus -27.0663 -8.78895 84.9838
lradius 21.9088
lwrist 7.20818
lhand -9.71782 -10.6724
lfingers 7.12502
lthumb 16.2554 18.6662
rfemur -2.8204 1.47884 23.9433
rtibia 10.4083
rfoot -19.3529 -14.9727
rtoes -12.5994
lfemur -11.1749 1.96509 -13.2334
ltibia 29.1838
lfoot 350.879 -14.2467
ltoes 20.1495
649
root 5.44255 28.0861 0.388856 5.30954 2.20364 -0.270319
lowerback -1.44924 0.369289 3.39444
upperback 0.0900916 0.438217 -0.527397
thorax 0.934743 0.23701 -2.43466
lowerneck 2.9068 -1.93198 -1.80513
upperneck 1.66779 -2.63226 1.20287
head 0.0714013 -1.32721 0.679504
rclavicle -3.65267e-015 1.71949e-014
rhumerus -40.5737 -2.23413 -83.8583
rradius 26.2938
rwrist 5.14749
rhand 2.95106 -22.0482
rfingers 7.12502
rthumb 28.4138 -49.9112
lclavicle -3.65267e-015 1.71949e-014
lhumerus -27.0752 -8.96379 85.1674
lradius 22.2758
lwrist 7.47378
lhand -9.8195 -10.8625
lfingers 7.12502
lthumb 16.1575 18.484
rfemur -2.62832 1.61713 24.016
rtibia 10.1149
rfoot -19.27 -15.2192
rtoes -12.7025
lfemur -11.5374 2.017 -13.1676
ltibia 29.5133
lfoot 350.413 -14.2051
ltoes 19.1703
650
root 5.44744 28.0858 0.380774 5.25893 2.20253 -0.268715
lowerback -1.38672 0.429932 3.41769
upperback 0.106298 0.520729 -0.527372
thorax 0.922097 0.278378 -2.44612
lowerneck 2.95362 -2.08601 -1.67032
upperneck 1.73364 -2.83424 1.14908
head 0.0843529 -1.42754 0.641909
rclavicle -1.20296e-014 -2.28602e-014
rhumerus -40.6979 -2.04731 -83.8561
rradius 26.1128
rwrist 5.57678
rhand 3.15089 -22.0095
rfingers 7.12502
rthumb 28.6047 -49.8406
lclavicle -1.20296e-014 -2.28602e-014
lhumerus -27.0655 -9.21524 85.3768
lradius 22.6164
lwrist 7.74744
lhand -9.93339 -11.024
lfingers 7.12502
lthumb 16.0478 18.3314
rfemur -2.46301 1.80903 24.0376
rtibia 9.85766
rfoot -19.2166 -15.4374
rtoes -12.7813
lfemur -11.816 2.10774 -13.1476
ltibia 29.6154
lfoot 349.884 -14.1314
ltoes 17.8274
651
root 5.45288 28.0864 0.374891 5.21919 2.15361 -0.259145
lowerback -1.36849 0.514315 3.43021
upperback 0.119827 0.633621 -0.539701
thorax 0.933702 0.33531 -2.46331
lowerneck 2.99272 -2.1778 -1.57476
upperneck 1.8234 -2.95458 1.13286
head 0.105407 -1.48731 0.621633
rclavicle 5.09386e-016 1.15792e-014
rhumerus -40.8503 -1.94261 -83.8269
rradius 25.9458
rwrist 6.05093
rhand 3.31985 -21.9412
rfingers 7.12502
rthumb 28.7661 -49.7449
lclavicle 5.09386e-016 1.15792e-014
lhumerus -27.0467 -9.55588 85.6061
lradius 22.9469
lwrist 8.02447
lhand -10.0758 -11.1334
lfingers 7.12502
lthumb 15.9106 18.2331
rfemur -2.30584 2.0518 24.0266
rtibia 9.6327
rfoot -19.2022 -15.6266
rtoes -12.7917
lfemur -11.9961 2.22858 -13.1581
ltibia 29.4864
lfoot 349.417 -14.056
ltoes 16.6312
652
root 5.45875 28.088 0.371051 5.17977 2.08213 -0.250772
lowerback -1.37874 0.610546 3.43502
upperback 0.13219 0.761434 -0.554311
thorax 0.961139 0.399938 -2.47787
lowerneck 3.01409 -2.19789 -1.54953
upperneck 1.93084 -2.98177 1.18199
head 0.135292 -1.50097 0.632117
rclavicle -1.40392e-015 -2.48481e-016
rhumerus -40.9941 -1.89589 -83.7705
rradius 25.7469
rwrist 6.5506
rhand 3.49414 -21.8875
rfingers 7.12502
rthumb 28.9326 -49.6628
lclavicle -1.40392e-015 -2.48481e-016
lhumerus -27.0308 -9.95111 85.855
lradius 23.2672
lwrist 8.30648
lhand -10.2513 -11.2228
lfingers 7.12502
lthumb 15.7416 18.157
rfemur -2.14143 2.32149 23.9967
rtibia 9.42475
rfoot -19.2043 -15.8036
rtoes -12.8317
lfemur -12.0773 2.36118 -13.1914
ltibia 29.1408
lfoot 349.091 -14.0062
ltoes 16.0037
653
root 5.46512 28.0906 0.369097 5.13777 2.01218 -0.248189
lowerback -1.40833 0.699884 3.43086
upperback 0.141474 0.879449 -0.558592
thorax 0.995368 0.459667 -2.47667
lowerneck 3.00968 -2.17488 -1.58952
upperneck 2.02862 -2.95366 1.2898
head 0.167491 -1.48735 0.670894
rclavicle -1.50642e-015 -1.08338e-014
rhumerus -41.0967 -1.85814 -83.6864
rradius 25.4853
rwrist 7.06505
rhand 3.70948 -21.8619
rfingers 7.12502
rthumb 29.1383 -49.6018
lclavicle -1.50642e-015 -1.08338e-014
lhumerus -27.0345 -10.3367 86.1203
lradius 23.5678
lwrist 8.5926
lhand -10.4573 -11.3513
lfingers 7.12502
lthumb 15.5433 18.0441
rfemur -1.96628 2.58589 23.9517
rtibia 9.22465
rfoot -19.2046 -15.9762
rtoes -12.9243
lfemur -12.0747 2.48471 -13.246
ltibia 28.6071
lfoot 348.93 -13.9835
ltoes 16.1052
